<mxfile host="Electron" modified="2024-07-16T00:12:41.759Z" agent="Mozilla/5.0 (Windows NT 10.0; Win64; x64) AppleWebKit/537.36 (KHTML, like Gecko) draw.io/24.6.4 Chrome/124.0.6367.207 Electron/30.0.6 Safari/537.36" etag="ZxPaB4L9nniVKjQ8lkkr" version="24.6.4" type="device">
  <diagram name="Страница — 1" id="pB-DCqzlVxQYwyFY6dTd">
    <mxGraphModel dx="4261" dy="2704" grid="1" gridSize="10" guides="1" tooltips="1" connect="1" arrows="1" fold="1" page="1" pageScale="1" pageWidth="827" pageHeight="1169" math="0" shadow="0">
      <root>
        <mxCell id="0" />
        <mxCell id="1" parent="0" />
        <mxCell id="i9HxITUdwTg5ynkEMa7d-1" value="&lt;font style=&quot;font-size: 14px;&quot;&gt;Найм&lt;/font&gt;" style="rounded=1;whiteSpace=wrap;html=1;fillColor=#92C064;strokeColor=#82b366;horizontal=1;verticalAlign=top;fontSize=14;fontStyle=1" parent="1" vertex="1">
          <mxGeometry x="-560" y="-195" width="1420" height="520" as="geometry" />
        </mxCell>
        <mxCell id="i9HxITUdwTg5ynkEMa7d-2" value="Повышение мотивации менеджеров" style="rounded=1;whiteSpace=wrap;html=1;fillColor=#C285FF;strokeColor=#82b366;verticalAlign=top;fontStyle=1;fontSize=14;" parent="1" vertex="1">
          <mxGeometry x="183.5" y="345" width="450" height="300" as="geometry" />
        </mxCell>
        <mxCell id="i9HxITUdwTg5ynkEMa7d-3" value="Повышение лояльности клиентов" style="rounded=1;whiteSpace=wrap;html=1;fillColor=#C285FF;strokeColor=#82b366;verticalAlign=top;fontSize=14;fontStyle=1" parent="1" vertex="1">
          <mxGeometry x="-296" y="340" width="400" height="300" as="geometry" />
        </mxCell>
        <mxCell id="i9HxITUdwTg5ynkEMa7d-4" value="&lt;font style=&quot;font-size: 14px;&quot;&gt;&lt;b&gt;Управление заказами&lt;/b&gt;&lt;/font&gt;" style="rounded=1;whiteSpace=wrap;html=1;fillColor=#C285FF;strokeColor=#82b366;verticalAlign=top;" parent="1" vertex="1">
          <mxGeometry x="-1406.5" y="340" width="1043" height="560" as="geometry" />
        </mxCell>
        <mxCell id="i9HxITUdwTg5ynkEMa7d-6" value="Найм воркеров" style="rounded=1;whiteSpace=wrap;html=1;horizontal=1;verticalAlign=top;" parent="1" vertex="1">
          <mxGeometry x="-510" y="-140" width="1280" height="420" as="geometry" />
        </mxCell>
        <mxCell id="i9HxITUdwTg5ynkEMa7d-8" value="Оплата заказов" style="rounded=1;whiteSpace=wrap;html=1;verticalAlign=top;" parent="1" vertex="1">
          <mxGeometry x="-1363.25" y="605" width="472" height="270" as="geometry" />
        </mxCell>
        <mxCell id="i9HxITUdwTg5ynkEMa7d-9" value="Выплаты воркерам" style="rounded=1;whiteSpace=wrap;html=1;verticalAlign=top;" parent="1" vertex="1">
          <mxGeometry x="-877.25" y="605" width="481.25" height="265" as="geometry" />
        </mxCell>
        <mxCell id="i9HxITUdwTg5ynkEMa7d-11" value="Управление заказами" style="rounded=1;whiteSpace=wrap;html=1;verticalAlign=top;" parent="1" vertex="1">
          <mxGeometry x="-1313.25" y="370" width="433.25" height="220" as="geometry" />
        </mxCell>
        <mxCell id="i9HxITUdwTg5ynkEMa7d-17" value="Тотализатор" style="rounded=1;whiteSpace=wrap;html=1;verticalAlign=top;" parent="1" vertex="1">
          <mxGeometry x="213.5" y="375" width="390" height="250" as="geometry" />
        </mxCell>
        <mxCell id="i9HxITUdwTg5ynkEMa7d-18" value="Контроль качества" style="rounded=1;whiteSpace=wrap;html=1;verticalAlign=top;" parent="1" vertex="1">
          <mxGeometry x="-269" y="370" width="353" height="250" as="geometry" />
        </mxCell>
        <mxCell id="p7_S75s9Kl5HE0xFlEru-1" value="Матчинг" style="rounded=1;whiteSpace=wrap;html=1;fillColor=#92C064;strokeColor=#82b366;verticalAlign=top;fontStyle=1;fontSize=14;" parent="1" vertex="1">
          <mxGeometry x="-1400" y="-170" width="718.5" height="480" as="geometry" />
        </mxCell>
        <mxCell id="i9HxITUdwTg5ynkEMa7d-10" value="Матчинг воркеров" style="rounded=1;whiteSpace=wrap;html=1;verticalAlign=top;" parent="1" vertex="1">
          <mxGeometry x="-1338.5" y="-140" width="628.5" height="440" as="geometry" />
        </mxCell>
        <mxCell id="guKOBlCvcFEGk6WnvgFR-11" value="&lt;b style=&quot;font-size: 11px;&quot;&gt;&lt;font style=&quot;font-size: 11px;&quot;&gt;Agility&lt;/font&gt;&lt;/b&gt;" style="whiteSpace=wrap;html=1;aspect=fixed;labelBackgroundColor=none;fillColor=#dae8fc;strokeColor=#6c8ebf;fontSize=11;" parent="1" vertex="1">
          <mxGeometry x="-436" y="30" width="70" height="70" as="geometry" />
        </mxCell>
        <mxCell id="guKOBlCvcFEGk6WnvgFR-12" value="&lt;b style=&quot;font-size: 11px;&quot;&gt;&lt;font style=&quot;font-size: 11px;&quot;&gt;Deployability&lt;/font&gt;&lt;/b&gt;" style="whiteSpace=wrap;html=1;aspect=fixed;labelBackgroundColor=none;fillColor=#dae8fc;strokeColor=#6c8ebf;fontSize=11;" parent="1" vertex="1">
          <mxGeometry x="-346" y="30" width="70" height="70" as="geometry" />
        </mxCell>
        <mxCell id="guKOBlCvcFEGk6WnvgFR-13" value="&lt;b style=&quot;font-size: 11px;&quot;&gt;&lt;font style=&quot;font-size: 11px;&quot;&gt;Testability&lt;/font&gt;&lt;/b&gt;" style="whiteSpace=wrap;html=1;aspect=fixed;labelBackgroundColor=none;fillColor=#dae8fc;strokeColor=#6c8ebf;fontSize=11;" parent="1" vertex="1">
          <mxGeometry x="-256" y="30" width="70" height="70" as="geometry" />
        </mxCell>
        <mxCell id="guKOBlCvcFEGk6WnvgFR-14" value="Низкий TTM" style="rounded=0;whiteSpace=wrap;html=1;fontStyle=1" parent="1" vertex="1">
          <mxGeometry x="-396" y="80" width="170" height="30" as="geometry" />
        </mxCell>
        <mxCell id="guKOBlCvcFEGk6WnvgFR-18" value="&lt;b style=&quot;font-size: 11px;&quot;&gt;&lt;font style=&quot;font-size: 11px;&quot;&gt;Agility&lt;/font&gt;&lt;/b&gt;" style="whiteSpace=wrap;html=1;aspect=fixed;labelBackgroundColor=none;fillColor=#dae8fc;strokeColor=#6c8ebf;fontSize=11;" parent="1" vertex="1">
          <mxGeometry x="-1041.5" y="30" width="70" height="70" as="geometry" />
        </mxCell>
        <mxCell id="guKOBlCvcFEGk6WnvgFR-19" value="&lt;b style=&quot;font-size: 11px;&quot;&gt;&lt;font style=&quot;font-size: 11px;&quot;&gt;Deployability&lt;/font&gt;&lt;/b&gt;" style="whiteSpace=wrap;html=1;aspect=fixed;labelBackgroundColor=none;fillColor=#dae8fc;strokeColor=#6c8ebf;fontSize=11;" parent="1" vertex="1">
          <mxGeometry x="-951.5" y="30" width="70" height="70" as="geometry" />
        </mxCell>
        <mxCell id="guKOBlCvcFEGk6WnvgFR-20" value="&lt;b style=&quot;font-size: 11px;&quot;&gt;&lt;font style=&quot;font-size: 11px;&quot;&gt;Testability&lt;/font&gt;&lt;/b&gt;" style="whiteSpace=wrap;html=1;aspect=fixed;labelBackgroundColor=none;fillColor=#dae8fc;strokeColor=#6c8ebf;fontSize=11;" parent="1" vertex="1">
          <mxGeometry x="-861.5" y="30" width="70" height="70" as="geometry" />
        </mxCell>
        <mxCell id="guKOBlCvcFEGk6WnvgFR-21" value="Низкий TTM" style="rounded=0;whiteSpace=wrap;html=1;fontStyle=1" parent="1" vertex="1">
          <mxGeometry x="-1001.5" y="80" width="170" height="30" as="geometry" />
        </mxCell>
        <mxCell id="guKOBlCvcFEGk6WnvgFR-22" value="&lt;b style=&quot;font-size: 11px;&quot;&gt;&lt;font style=&quot;font-size: 11px;&quot;&gt;Agility&lt;/font&gt;&lt;/b&gt;" style="whiteSpace=wrap;html=1;aspect=fixed;labelBackgroundColor=none;fillColor=#dae8fc;strokeColor=#6c8ebf;fontSize=11;" parent="1" vertex="1">
          <mxGeometry x="-221" y="535" width="70" height="70" as="geometry" />
        </mxCell>
        <mxCell id="guKOBlCvcFEGk6WnvgFR-23" value="&lt;b style=&quot;font-size: 11px;&quot;&gt;&lt;font style=&quot;font-size: 11px;&quot;&gt;Deployability&lt;/font&gt;&lt;/b&gt;" style="whiteSpace=wrap;html=1;aspect=fixed;labelBackgroundColor=none;fillColor=#dae8fc;strokeColor=#6c8ebf;fontSize=11;" parent="1" vertex="1">
          <mxGeometry x="-131" y="535" width="70" height="70" as="geometry" />
        </mxCell>
        <mxCell id="guKOBlCvcFEGk6WnvgFR-24" value="&lt;b style=&quot;font-size: 11px;&quot;&gt;&lt;font style=&quot;font-size: 11px;&quot;&gt;Testability&lt;/font&gt;&lt;/b&gt;" style="whiteSpace=wrap;html=1;aspect=fixed;labelBackgroundColor=none;fillColor=#dae8fc;strokeColor=#6c8ebf;fontSize=11;" parent="1" vertex="1">
          <mxGeometry x="-41" y="535" width="70" height="70" as="geometry" />
        </mxCell>
        <mxCell id="guKOBlCvcFEGk6WnvgFR-25" value="Низкий TTM" style="rounded=0;whiteSpace=wrap;html=1;fontStyle=1" parent="1" vertex="1">
          <mxGeometry x="-181" y="585" width="170" height="30" as="geometry" />
        </mxCell>
        <mxCell id="guKOBlCvcFEGk6WnvgFR-30" value="&lt;b style=&quot;font-size: 11px;&quot;&gt;&lt;font style=&quot;font-size: 11px;&quot;&gt;Agility&lt;/font&gt;&lt;/b&gt;" style="whiteSpace=wrap;html=1;aspect=fixed;labelBackgroundColor=none;fillColor=#dae8fc;strokeColor=#6c8ebf;fontSize=11;" parent="1" vertex="1">
          <mxGeometry x="-1297.25" y="500" width="70" height="70" as="geometry" />
        </mxCell>
        <mxCell id="guKOBlCvcFEGk6WnvgFR-31" value="&lt;b style=&quot;font-size: 11px;&quot;&gt;&lt;font style=&quot;font-size: 11px;&quot;&gt;Deployability&lt;/font&gt;&lt;/b&gt;" style="whiteSpace=wrap;html=1;aspect=fixed;labelBackgroundColor=none;fillColor=#dae8fc;strokeColor=#6c8ebf;fontSize=11;" parent="1" vertex="1">
          <mxGeometry x="-1207.25" y="500" width="70" height="70" as="geometry" />
        </mxCell>
        <mxCell id="guKOBlCvcFEGk6WnvgFR-32" value="&lt;b style=&quot;font-size: 11px;&quot;&gt;&lt;font style=&quot;font-size: 11px;&quot;&gt;Testability&lt;/font&gt;&lt;/b&gt;" style="whiteSpace=wrap;html=1;aspect=fixed;labelBackgroundColor=none;fillColor=#dae8fc;strokeColor=#6c8ebf;fontSize=11;" parent="1" vertex="1">
          <mxGeometry x="-1117.25" y="500" width="70" height="70" as="geometry" />
        </mxCell>
        <mxCell id="guKOBlCvcFEGk6WnvgFR-33" value="Низкий TTM" style="rounded=0;whiteSpace=wrap;html=1;fontStyle=1" parent="1" vertex="1">
          <mxGeometry x="-1257.25" y="550" width="170" height="30" as="geometry" />
        </mxCell>
        <mxCell id="guKOBlCvcFEGk6WnvgFR-34" value="&lt;b style=&quot;font-size: 11px;&quot;&gt;&lt;font style=&quot;font-size: 11px;&quot;&gt;Agility&lt;/font&gt;&lt;/b&gt;" style="whiteSpace=wrap;html=1;aspect=fixed;labelBackgroundColor=none;fillColor=#dae8fc;strokeColor=#6c8ebf;fontSize=11;" parent="1" vertex="1">
          <mxGeometry x="-857.25" y="775" width="70" height="70" as="geometry" />
        </mxCell>
        <mxCell id="guKOBlCvcFEGk6WnvgFR-35" value="&lt;b style=&quot;font-size: 11px;&quot;&gt;&lt;font style=&quot;font-size: 11px;&quot;&gt;Deployability&lt;/font&gt;&lt;/b&gt;" style="whiteSpace=wrap;html=1;aspect=fixed;labelBackgroundColor=none;fillColor=#dae8fc;strokeColor=#6c8ebf;fontSize=11;" parent="1" vertex="1">
          <mxGeometry x="-767.25" y="775" width="70" height="70" as="geometry" />
        </mxCell>
        <mxCell id="guKOBlCvcFEGk6WnvgFR-36" value="&lt;b style=&quot;font-size: 11px;&quot;&gt;&lt;font style=&quot;font-size: 11px;&quot;&gt;Testability&lt;/font&gt;&lt;/b&gt;" style="whiteSpace=wrap;html=1;aspect=fixed;labelBackgroundColor=none;fillColor=#dae8fc;strokeColor=#6c8ebf;fontSize=11;" parent="1" vertex="1">
          <mxGeometry x="-677.25" y="775" width="70" height="70" as="geometry" />
        </mxCell>
        <mxCell id="guKOBlCvcFEGk6WnvgFR-37" value="Низкий TTM" style="rounded=0;whiteSpace=wrap;html=1;fontStyle=1" parent="1" vertex="1">
          <mxGeometry x="-817.25" y="825" width="167.25" height="30" as="geometry" />
        </mxCell>
        <mxCell id="guKOBlCvcFEGk6WnvgFR-38" value="&lt;b style=&quot;font-size: 11px;&quot;&gt;&lt;font style=&quot;font-size: 11px;&quot;&gt;Agility&lt;/font&gt;&lt;/b&gt;" style="whiteSpace=wrap;html=1;aspect=fixed;labelBackgroundColor=none;fillColor=#dae8fc;strokeColor=#6c8ebf;fontSize=11;" parent="1" vertex="1">
          <mxGeometry x="-1337.25" y="785" width="70" height="70" as="geometry" />
        </mxCell>
        <mxCell id="guKOBlCvcFEGk6WnvgFR-39" value="&lt;b style=&quot;font-size: 11px;&quot;&gt;&lt;font style=&quot;font-size: 11px;&quot;&gt;Deployability&lt;/font&gt;&lt;/b&gt;" style="whiteSpace=wrap;html=1;aspect=fixed;labelBackgroundColor=none;fillColor=#dae8fc;strokeColor=#6c8ebf;fontSize=11;" parent="1" vertex="1">
          <mxGeometry x="-1247.25" y="785" width="70" height="70" as="geometry" />
        </mxCell>
        <mxCell id="guKOBlCvcFEGk6WnvgFR-40" value="&lt;b style=&quot;font-size: 11px;&quot;&gt;&lt;font style=&quot;font-size: 11px;&quot;&gt;Testability&lt;/font&gt;&lt;/b&gt;" style="whiteSpace=wrap;html=1;aspect=fixed;labelBackgroundColor=none;fillColor=#dae8fc;strokeColor=#6c8ebf;fontSize=11;" parent="1" vertex="1">
          <mxGeometry x="-1157.25" y="785" width="70" height="70" as="geometry" />
        </mxCell>
        <mxCell id="guKOBlCvcFEGk6WnvgFR-41" value="Низкий TTM" style="rounded=0;whiteSpace=wrap;html=1;fontStyle=1" parent="1" vertex="1">
          <mxGeometry x="-1297.25" y="835" width="170" height="30" as="geometry" />
        </mxCell>
        <mxCell id="guKOBlCvcFEGk6WnvgFR-42" value="&lt;b style=&quot;font-size: 11px;&quot;&gt;&lt;font style=&quot;font-size: 11px;&quot;&gt;Agility&lt;/font&gt;&lt;/b&gt;" style="whiteSpace=wrap;html=1;aspect=fixed;labelBackgroundColor=none;fillColor=#dae8fc;strokeColor=#6c8ebf;fontSize=11;" parent="1" vertex="1">
          <mxGeometry x="283.5" y="540" width="70" height="70" as="geometry" />
        </mxCell>
        <mxCell id="guKOBlCvcFEGk6WnvgFR-43" value="&lt;b style=&quot;font-size: 11px;&quot;&gt;&lt;font style=&quot;font-size: 11px;&quot;&gt;Deployability&lt;/font&gt;&lt;/b&gt;" style="whiteSpace=wrap;html=1;aspect=fixed;labelBackgroundColor=none;fillColor=#dae8fc;strokeColor=#6c8ebf;fontSize=11;" parent="1" vertex="1">
          <mxGeometry x="373.5" y="540" width="70" height="70" as="geometry" />
        </mxCell>
        <mxCell id="guKOBlCvcFEGk6WnvgFR-44" value="&lt;b style=&quot;font-size: 11px;&quot;&gt;&lt;font style=&quot;font-size: 11px;&quot;&gt;Testability&lt;/font&gt;&lt;/b&gt;" style="whiteSpace=wrap;html=1;aspect=fixed;labelBackgroundColor=none;fillColor=#dae8fc;strokeColor=#6c8ebf;fontSize=11;" parent="1" vertex="1">
          <mxGeometry x="463.5" y="540" width="70" height="70" as="geometry" />
        </mxCell>
        <mxCell id="guKOBlCvcFEGk6WnvgFR-45" value="Низкий TTM" style="rounded=0;whiteSpace=wrap;html=1;fontStyle=1" parent="1" vertex="1">
          <mxGeometry x="323.5" y="590" width="170" height="30" as="geometry" />
        </mxCell>
        <mxCell id="guKOBlCvcFEGk6WnvgFR-46" value="Общие характеристики на всю систему" style="rounded=1;whiteSpace=wrap;html=1;verticalAlign=top;" parent="1" vertex="1">
          <mxGeometry x="-290" y="690" width="305" height="200" as="geometry" />
        </mxCell>
        <mxCell id="guKOBlCvcFEGk6WnvgFR-47" value="&lt;b style=&quot;font-size: 11px;&quot;&gt;&lt;font style=&quot;font-size: 11px;&quot;&gt;Agility&lt;/font&gt;&lt;/b&gt;" style="whiteSpace=wrap;html=1;aspect=fixed;labelBackgroundColor=none;fillColor=#fff2cc;strokeColor=#d6b656;fontSize=11;" parent="1" vertex="1">
          <mxGeometry x="-265" y="720" width="70" height="70" as="geometry" />
        </mxCell>
        <mxCell id="DYhysilcUHir7CbwO9jj-1" value="&lt;b style=&quot;font-size: 11px;&quot;&gt;&lt;font style=&quot;font-size: 11px;&quot;&gt;Deployability&lt;/font&gt;&lt;/b&gt;" style="whiteSpace=wrap;html=1;aspect=fixed;labelBackgroundColor=none;fillColor=#fff2cc;strokeColor=#d6b656;fontSize=11;" vertex="1" parent="1">
          <mxGeometry x="-175" y="720" width="70" height="70" as="geometry" />
        </mxCell>
        <mxCell id="DYhysilcUHir7CbwO9jj-2" value="&lt;b style=&quot;font-size: 11px;&quot;&gt;&lt;font style=&quot;font-size: 11px;&quot;&gt;Testability&lt;/font&gt;&lt;/b&gt;" style="whiteSpace=wrap;html=1;aspect=fixed;labelBackgroundColor=none;fillColor=#fff2cc;strokeColor=#d6b656;fontSize=11;" vertex="1" parent="1">
          <mxGeometry x="-85" y="720" width="70" height="70" as="geometry" />
        </mxCell>
        <mxCell id="DYhysilcUHir7CbwO9jj-3" value="&lt;b style=&quot;font-size: 11px;&quot;&gt;&lt;font style=&quot;font-size: 11px;&quot;&gt;Scalability&lt;/font&gt;&lt;/b&gt;" style="whiteSpace=wrap;html=1;aspect=fixed;labelBackgroundColor=none;fillColor=#e1d5e7;strokeColor=#9673a6;fontSize=11;" vertex="1" parent="1">
          <mxGeometry x="-386" y="-110" width="70" height="70" as="geometry" />
        </mxCell>
        <mxCell id="DYhysilcUHir7CbwO9jj-4" value="&lt;b style=&quot;font-size: 11px;&quot;&gt;&lt;font style=&quot;font-size: 11px;&quot;&gt;Securablity&lt;/font&gt;&lt;/b&gt;" style="whiteSpace=wrap;html=1;aspect=fixed;labelBackgroundColor=none;fillColor=#e1d5e7;strokeColor=#9673a6;fontSize=11;" vertex="1" parent="1">
          <mxGeometry x="-296" y="-110" width="70" height="70" as="geometry" />
        </mxCell>
        <mxCell id="DYhysilcUHir7CbwO9jj-5" value="&lt;b&gt;modifiability&lt;/b&gt;" style="whiteSpace=wrap;html=1;aspect=fixed;labelBackgroundColor=none;fillColor=#f0a30a;strokeColor=#BD7000;fontSize=11;fontColor=#000000;" vertex="1" parent="1">
          <mxGeometry x="-436" y="120" width="70" height="70" as="geometry" />
        </mxCell>
        <mxCell id="DYhysilcUHir7CbwO9jj-6" value="&lt;b&gt;testability&lt;/b&gt;" style="whiteSpace=wrap;html=1;aspect=fixed;labelBackgroundColor=none;fillColor=#f0a30a;strokeColor=#BD7000;fontSize=11;fontColor=#000000;" vertex="1" parent="1">
          <mxGeometry x="-346" y="120" width="70" height="70" as="geometry" />
        </mxCell>
        <mxCell id="DYhysilcUHir7CbwO9jj-7" value="&lt;b&gt;deployability&lt;/b&gt;" style="whiteSpace=wrap;html=1;aspect=fixed;labelBackgroundColor=none;fillColor=#f0a30a;strokeColor=#BD7000;fontSize=11;fontColor=#000000;" vertex="1" parent="1">
          <mxGeometry x="-256" y="120" width="70" height="70" as="geometry" />
        </mxCell>
        <mxCell id="DYhysilcUHir7CbwO9jj-8" value="Для бизнеса критично проверять новые гипотезы по отсеву котов и изменять уже существующие с максимальной скоростью и надёжностью." style="rounded=0;whiteSpace=wrap;html=1;fontStyle=1" vertex="1" parent="1">
          <mxGeometry x="-422.5" y="170" width="210" height="90" as="geometry" />
        </mxCell>
        <mxCell id="DYhysilcUHir7CbwO9jj-9" value="[US-081] Мы ожидаем 1к заявок в день от рандомных котов, также, судя по отзывам, наши конкуренты могут попытаться нас заддосить в этом месте." style="rounded=0;whiteSpace=wrap;html=1;fontStyle=1" vertex="1" parent="1">
          <mxGeometry x="-410" y="-60" width="210" height="70" as="geometry" />
        </mxCell>
        <mxCell id="DYhysilcUHir7CbwO9jj-10" value="&lt;b&gt;maintainability&lt;/b&gt;" style="whiteSpace=wrap;html=1;aspect=fixed;labelBackgroundColor=none;fillColor=#fff2cc;strokeColor=#d6b656;fontSize=11;" vertex="1" parent="1">
          <mxGeometry x="-265" y="800" width="70" height="70" as="geometry" />
        </mxCell>
        <mxCell id="DYhysilcUHir7CbwO9jj-11" value="&lt;b&gt;reliability&lt;/b&gt;" style="whiteSpace=wrap;html=1;aspect=fixed;labelBackgroundColor=none;fillColor=#fff2cc;strokeColor=#d6b656;fontSize=11;" vertex="1" parent="1">
          <mxGeometry x="-175" y="800" width="70" height="70" as="geometry" />
        </mxCell>
        <mxCell id="DYhysilcUHir7CbwO9jj-14" value="&lt;b&gt;maintainability&lt;/b&gt;" style="whiteSpace=wrap;html=1;aspect=fixed;labelBackgroundColor=none;fillColor=#fff2cc;strokeColor=#d6b656;fontSize=11;" vertex="1" parent="1">
          <mxGeometry x="-221" y="400" width="70" height="70" as="geometry" />
        </mxCell>
        <mxCell id="DYhysilcUHir7CbwO9jj-15" value="&lt;b&gt;reliability&lt;/b&gt;" style="whiteSpace=wrap;html=1;aspect=fixed;labelBackgroundColor=none;fillColor=#fff2cc;strokeColor=#d6b656;fontSize=11;" vertex="1" parent="1">
          <mxGeometry x="-131" y="400" width="70" height="70" as="geometry" />
        </mxCell>
        <mxCell id="DYhysilcUHir7CbwO9jj-16" value="&lt;span style=&quot;font-size: 12px; text-align: left;&quot;&gt;supportability&lt;/span&gt;" style="whiteSpace=wrap;html=1;aspect=fixed;labelBackgroundColor=none;fillColor=#fff2cc;strokeColor=#d6b656;fontSize=11;" vertex="1" parent="1">
          <mxGeometry x="-46" y="400" width="70" height="70" as="geometry" />
        </mxCell>
        <mxCell id="DYhysilcUHir7CbwO9jj-17" value="Supporting subdomain" style="rounded=0;whiteSpace=wrap;html=1;fontStyle=1" vertex="1" parent="1">
          <mxGeometry x="-177.5" y="455" width="170" height="30" as="geometry" />
        </mxCell>
        <mxCell id="DYhysilcUHir7CbwO9jj-18" value="&lt;b&gt;maintainability&lt;/b&gt;" style="whiteSpace=wrap;html=1;aspect=fixed;labelBackgroundColor=none;fillColor=#fff2cc;strokeColor=#d6b656;fontSize=11;" vertex="1" parent="1">
          <mxGeometry x="-1297.25" y="400" width="70" height="70" as="geometry" />
        </mxCell>
        <mxCell id="DYhysilcUHir7CbwO9jj-19" value="&lt;b&gt;reliability&lt;/b&gt;" style="whiteSpace=wrap;html=1;aspect=fixed;labelBackgroundColor=none;fillColor=#fff2cc;strokeColor=#d6b656;fontSize=11;" vertex="1" parent="1">
          <mxGeometry x="-1207.25" y="400" width="70" height="70" as="geometry" />
        </mxCell>
        <mxCell id="DYhysilcUHir7CbwO9jj-20" value="&lt;span style=&quot;font-size: 12px; text-align: left;&quot;&gt;supportability&lt;/span&gt;" style="whiteSpace=wrap;html=1;aspect=fixed;labelBackgroundColor=none;fillColor=#fff2cc;strokeColor=#d6b656;fontSize=11;" vertex="1" parent="1">
          <mxGeometry x="-1122.25" y="400" width="70" height="70" as="geometry" />
        </mxCell>
        <mxCell id="DYhysilcUHir7CbwO9jj-21" value="Supporting subdomain" style="rounded=0;whiteSpace=wrap;html=1;fontStyle=1" vertex="1" parent="1">
          <mxGeometry x="-1253.75" y="455" width="170" height="30" as="geometry" />
        </mxCell>
        <mxCell id="DYhysilcUHir7CbwO9jj-22" value="&lt;b&gt;maintainability&lt;/b&gt;" style="whiteSpace=wrap;html=1;aspect=fixed;labelBackgroundColor=none;fillColor=#fff2cc;strokeColor=#d6b656;fontSize=11;" vertex="1" parent="1">
          <mxGeometry x="-852.25" y="645" width="70" height="70" as="geometry" />
        </mxCell>
        <mxCell id="DYhysilcUHir7CbwO9jj-23" value="&lt;b&gt;reliability&lt;/b&gt;" style="whiteSpace=wrap;html=1;aspect=fixed;labelBackgroundColor=none;fillColor=#fff2cc;strokeColor=#d6b656;fontSize=11;" vertex="1" parent="1">
          <mxGeometry x="-762.25" y="645" width="70" height="70" as="geometry" />
        </mxCell>
        <mxCell id="DYhysilcUHir7CbwO9jj-24" value="&lt;span style=&quot;font-size: 12px; text-align: left;&quot;&gt;supportability&lt;/span&gt;" style="whiteSpace=wrap;html=1;aspect=fixed;labelBackgroundColor=none;fillColor=#fff2cc;strokeColor=#d6b656;fontSize=11;" vertex="1" parent="1">
          <mxGeometry x="-677.25" y="645" width="70" height="70" as="geometry" />
        </mxCell>
        <mxCell id="DYhysilcUHir7CbwO9jj-25" value="Supporting subdomain" style="rounded=0;whiteSpace=wrap;html=1;fontStyle=1" vertex="1" parent="1">
          <mxGeometry x="-808.75" y="700" width="170" height="30" as="geometry" />
        </mxCell>
        <mxCell id="DYhysilcUHir7CbwO9jj-26" value="&lt;b&gt;maintainability&lt;/b&gt;" style="whiteSpace=wrap;html=1;aspect=fixed;labelBackgroundColor=none;fillColor=#fff2cc;strokeColor=#d6b656;fontSize=11;" vertex="1" parent="1">
          <mxGeometry x="-1341.25" y="645" width="70" height="70" as="geometry" />
        </mxCell>
        <mxCell id="DYhysilcUHir7CbwO9jj-27" value="&lt;b&gt;reliability&lt;/b&gt;" style="whiteSpace=wrap;html=1;aspect=fixed;labelBackgroundColor=none;fillColor=#fff2cc;strokeColor=#d6b656;fontSize=11;" vertex="1" parent="1">
          <mxGeometry x="-1251.25" y="645" width="70" height="70" as="geometry" />
        </mxCell>
        <mxCell id="DYhysilcUHir7CbwO9jj-28" value="&lt;span style=&quot;font-size: 12px; text-align: left;&quot;&gt;supportability&lt;/span&gt;" style="whiteSpace=wrap;html=1;aspect=fixed;labelBackgroundColor=none;fillColor=#fff2cc;strokeColor=#d6b656;fontSize=11;" vertex="1" parent="1">
          <mxGeometry x="-1166.25" y="645" width="70" height="70" as="geometry" />
        </mxCell>
        <mxCell id="DYhysilcUHir7CbwO9jj-29" value="Supporting subdomain" style="rounded=0;whiteSpace=wrap;html=1;fontStyle=1" vertex="1" parent="1">
          <mxGeometry x="-1297.75" y="700" width="170" height="30" as="geometry" />
        </mxCell>
        <mxCell id="DYhysilcUHir7CbwO9jj-30" value="&lt;b&gt;maintainability&lt;/b&gt;" style="whiteSpace=wrap;html=1;aspect=fixed;labelBackgroundColor=none;fillColor=#fff2cc;strokeColor=#d6b656;fontSize=11;" vertex="1" parent="1">
          <mxGeometry x="288.5" y="405" width="70" height="70" as="geometry" />
        </mxCell>
        <mxCell id="DYhysilcUHir7CbwO9jj-31" value="&lt;b&gt;reliability&lt;/b&gt;" style="whiteSpace=wrap;html=1;aspect=fixed;labelBackgroundColor=none;fillColor=#fff2cc;strokeColor=#d6b656;fontSize=11;" vertex="1" parent="1">
          <mxGeometry x="378.5" y="405" width="70" height="70" as="geometry" />
        </mxCell>
        <mxCell id="DYhysilcUHir7CbwO9jj-32" value="&lt;span style=&quot;font-size: 12px; text-align: left;&quot;&gt;supportability&lt;/span&gt;" style="whiteSpace=wrap;html=1;aspect=fixed;labelBackgroundColor=none;fillColor=#fff2cc;strokeColor=#d6b656;fontSize=11;" vertex="1" parent="1">
          <mxGeometry x="463.5" y="405" width="70" height="70" as="geometry" />
        </mxCell>
        <mxCell id="DYhysilcUHir7CbwO9jj-33" value="Supporting subdomain" style="rounded=0;whiteSpace=wrap;html=1;fontStyle=1" vertex="1" parent="1">
          <mxGeometry x="332" y="460" width="170" height="30" as="geometry" />
        </mxCell>
        <mxCell id="DYhysilcUHir7CbwO9jj-34" value="&lt;b&gt;scalability&lt;/b&gt;" style="whiteSpace=wrap;html=1;aspect=fixed;labelBackgroundColor=none;fillColor=#fad9d5;strokeColor=#ae4132;fontSize=11;" vertex="1" parent="1">
          <mxGeometry x="-1041.5" y="-90" width="70" height="70" as="geometry" />
        </mxCell>
        <mxCell id="DYhysilcUHir7CbwO9jj-35" value="&lt;b&gt;availability&lt;/b&gt;" style="whiteSpace=wrap;html=1;aspect=fixed;labelBackgroundColor=none;fillColor=#fad9d5;strokeColor=#ae4132;fontSize=11;" vertex="1" parent="1">
          <mxGeometry x="-951.5" y="-90" width="70" height="70" as="geometry" />
        </mxCell>
        <mxCell id="DYhysilcUHir7CbwO9jj-36" value="&lt;b&gt;fault tolerance&lt;/b&gt;" style="whiteSpace=wrap;html=1;aspect=fixed;labelBackgroundColor=none;fillColor=#fad9d5;strokeColor=#ae4132;fontSize=11;" vertex="1" parent="1">
          <mxGeometry x="-861.5" y="-90" width="70" height="70" as="geometry" />
        </mxCell>
        <mxCell id="DYhysilcUHir7CbwO9jj-43" value="&lt;b style=&quot;font-size: 11px;&quot;&gt;&lt;font style=&quot;font-size: 11px;&quot;&gt;Agility&lt;/font&gt;&lt;/b&gt;" style="whiteSpace=wrap;html=1;aspect=fixed;labelBackgroundColor=none;fillColor=#fad9d5;strokeColor=#ae4132;fontSize=11;" vertex="1" parent="1">
          <mxGeometry x="-1320" y="-90" width="70" height="70" as="geometry" />
        </mxCell>
        <mxCell id="DYhysilcUHir7CbwO9jj-44" value="&lt;b style=&quot;font-size: 11px;&quot;&gt;&lt;font style=&quot;font-size: 11px;&quot;&gt;Deployability&lt;/font&gt;&lt;/b&gt;" style="whiteSpace=wrap;html=1;aspect=fixed;labelBackgroundColor=none;fillColor=#fad9d5;strokeColor=#ae4132;fontSize=11;" vertex="1" parent="1">
          <mxGeometry x="-1230" y="-90" width="70" height="70" as="geometry" />
        </mxCell>
        <mxCell id="DYhysilcUHir7CbwO9jj-45" value="&lt;b style=&quot;font-size: 11px;&quot;&gt;&lt;font style=&quot;font-size: 11px;&quot;&gt;Testability&lt;/font&gt;&lt;/b&gt;" style="whiteSpace=wrap;html=1;aspect=fixed;labelBackgroundColor=none;fillColor=#fad9d5;strokeColor=#ae4132;fontSize=11;" vertex="1" parent="1">
          <mxGeometry x="-1140" y="-90" width="70" height="70" as="geometry" />
        </mxCell>
        <mxCell id="DYhysilcUHir7CbwO9jj-37" value="Конкурентное преимущество" style="rounded=0;whiteSpace=wrap;html=1;fontStyle=1" vertex="1" parent="1">
          <mxGeometry x="-1270" y="-30" width="438.5" height="30" as="geometry" />
        </mxCell>
        <mxCell id="DYhysilcUHir7CbwO9jj-53" value="&lt;b&gt;fault tolerance&lt;/b&gt;" style="whiteSpace=wrap;html=1;aspect=fixed;labelBackgroundColor=none;fillColor=#fad9d5;strokeColor=#ae4132;fontSize=11;" vertex="1" parent="1">
          <mxGeometry x="368.5" y="-105" width="70" height="70" as="geometry" />
        </mxCell>
        <mxCell id="DYhysilcUHir7CbwO9jj-54" value="&lt;b&gt;availability&lt;/b&gt;" style="whiteSpace=wrap;html=1;aspect=fixed;labelBackgroundColor=none;fillColor=#fad9d5;strokeColor=#ae4132;fontSize=11;" vertex="1" parent="1">
          <mxGeometry x="278.5" y="-105" width="70" height="70" as="geometry" />
        </mxCell>
        <mxCell id="DYhysilcUHir7CbwO9jj-56" value="&lt;b&gt;scalability&lt;/b&gt;" style="whiteSpace=wrap;html=1;aspect=fixed;labelBackgroundColor=none;fillColor=#fad9d5;strokeColor=#ae4132;fontSize=11;" vertex="1" parent="1">
          <mxGeometry x="188.5" y="-105" width="70" height="70" as="geometry" />
        </mxCell>
        <mxCell id="DYhysilcUHir7CbwO9jj-57" value="&lt;b style=&quot;font-size: 11px;&quot;&gt;&lt;font style=&quot;font-size: 11px;&quot;&gt;Testability&lt;/font&gt;&lt;/b&gt;" style="whiteSpace=wrap;html=1;aspect=fixed;labelBackgroundColor=none;fillColor=#fad9d5;strokeColor=#ae4132;fontSize=11;" vertex="1" parent="1">
          <mxGeometry x="90" y="-105" width="70" height="70" as="geometry" />
        </mxCell>
        <mxCell id="DYhysilcUHir7CbwO9jj-58" value="&lt;b style=&quot;font-size: 11px;&quot;&gt;&lt;font style=&quot;font-size: 11px;&quot;&gt;Deployability&lt;/font&gt;&lt;/b&gt;" style="whiteSpace=wrap;html=1;aspect=fixed;labelBackgroundColor=none;fillColor=#fad9d5;strokeColor=#ae4132;fontSize=11;" vertex="1" parent="1">
          <mxGeometry y="-105" width="70" height="70" as="geometry" />
        </mxCell>
        <mxCell id="DYhysilcUHir7CbwO9jj-59" value="&lt;b style=&quot;font-size: 11px;&quot;&gt;&lt;font style=&quot;font-size: 11px;&quot;&gt;Agility&lt;/font&gt;&lt;/b&gt;" style="whiteSpace=wrap;html=1;aspect=fixed;labelBackgroundColor=none;fillColor=#fad9d5;strokeColor=#ae4132;fontSize=11;" vertex="1" parent="1">
          <mxGeometry x="-90" y="-105" width="70" height="70" as="geometry" />
        </mxCell>
        <mxCell id="DYhysilcUHir7CbwO9jj-55" value="Конкурентное преимущество" style="rounded=0;whiteSpace=wrap;html=1;fontStyle=1" vertex="1" parent="1">
          <mxGeometry x="-40" y="-45" width="438.5" height="30" as="geometry" />
        </mxCell>
        <mxCell id="DYhysilcUHir7CbwO9jj-60" value="&lt;span style=&quot;font-size: 12px; text-align: left;&quot;&gt;availability&lt;/span&gt;" style="whiteSpace=wrap;html=1;aspect=fixed;labelBackgroundColor=none;fillColor=#cdeb8b;strokeColor=#36393d;fontSize=11;" vertex="1" parent="1">
          <mxGeometry x="-85" y="25" width="70" height="70" as="geometry" />
        </mxCell>
        <mxCell id="DYhysilcUHir7CbwO9jj-61" value="&lt;span style=&quot;font-size: 12px; text-align: left;&quot;&gt;continuity&lt;/span&gt;" style="whiteSpace=wrap;html=1;aspect=fixed;labelBackgroundColor=none;fillColor=#cdeb8b;strokeColor=#36393d;fontSize=11;" vertex="1" parent="1">
          <mxGeometry x="5" y="25" width="70" height="70" as="geometry" />
        </mxCell>
        <mxCell id="DYhysilcUHir7CbwO9jj-62" value="&lt;span style=&quot;font-size: 12px; text-align: left;&quot;&gt;reliability&lt;/span&gt;" style="whiteSpace=wrap;html=1;aspect=fixed;labelBackgroundColor=none;fillColor=#cdeb8b;strokeColor=#36393d;fontSize=11;" vertex="1" parent="1">
          <mxGeometry x="95" y="25" width="70" height="70" as="geometry" />
        </mxCell>
        <mxCell id="DYhysilcUHir7CbwO9jj-63" value="&lt;span style=&quot;font-size: 12px; text-align: left;&quot;&gt;еxtensibility&lt;/span&gt;" style="whiteSpace=wrap;html=1;aspect=fixed;labelBackgroundColor=none;fillColor=#cdeb8b;strokeColor=#36393d;fontSize=11;" vertex="1" parent="1">
          <mxGeometry x="193.5" y="25" width="70" height="70" as="geometry" />
        </mxCell>
        <mxCell id="DYhysilcUHir7CbwO9jj-64" value="&lt;span style=&quot;font-size: 12px; text-align: left;&quot;&gt;modifiability&lt;/span&gt;" style="whiteSpace=wrap;html=1;aspect=fixed;labelBackgroundColor=none;fillColor=#cdeb8b;strokeColor=#36393d;fontSize=11;" vertex="1" parent="1">
          <mxGeometry x="283.5" y="25" width="70" height="70" as="geometry" />
        </mxCell>
        <mxCell id="DYhysilcUHir7CbwO9jj-65" value="&lt;span style=&quot;font-size: 12px; text-align: left;&quot;&gt;maintainability&lt;/span&gt;" style="whiteSpace=wrap;html=1;aspect=fixed;labelBackgroundColor=none;fillColor=#cdeb8b;strokeColor=#36393d;fontSize=11;" vertex="1" parent="1">
          <mxGeometry x="373.5" y="25" width="70" height="70" as="geometry" />
        </mxCell>
        <mxCell id="DYhysilcUHir7CbwO9jj-68" value="&lt;span style=&quot;font-size: 12px; text-align: left;&quot;&gt;supportability&lt;/span&gt;" style="whiteSpace=wrap;html=1;aspect=fixed;labelBackgroundColor=none;fillColor=#cdeb8b;strokeColor=#36393d;fontSize=11;" vertex="1" parent="1">
          <mxGeometry x="-85" y="100" width="70" height="70" as="geometry" />
        </mxCell>
        <mxCell id="DYhysilcUHir7CbwO9jj-69" value="&lt;span style=&quot;font-size: 12px; text-align: left;&quot;&gt;security&lt;/span&gt;" style="whiteSpace=wrap;html=1;aspect=fixed;labelBackgroundColor=none;fillColor=#cdeb8b;strokeColor=#36393d;fontSize=11;" vertex="1" parent="1">
          <mxGeometry x="193.5" y="100" width="70" height="70" as="geometry" />
        </mxCell>
        <mxCell id="DYhysilcUHir7CbwO9jj-70" value="&lt;span style=&quot;font-size: 12px; text-align: left;&quot;&gt;readability&lt;/span&gt;" style="whiteSpace=wrap;html=1;aspect=fixed;labelBackgroundColor=none;fillColor=#cdeb8b;strokeColor=#36393d;fontSize=11;" vertex="1" parent="1">
          <mxGeometry x="5" y="100" width="70" height="70" as="geometry" />
        </mxCell>
        <mxCell id="DYhysilcUHir7CbwO9jj-71" value="&lt;span style=&quot;font-size: 12px; text-align: left;&quot;&gt;accessibility&lt;/span&gt;" style="whiteSpace=wrap;html=1;aspect=fixed;labelBackgroundColor=none;fillColor=#cdeb8b;strokeColor=#36393d;fontSize=11;" vertex="1" parent="1">
          <mxGeometry x="95" y="100" width="70" height="70" as="geometry" />
        </mxCell>
        <mxCell id="DYhysilcUHir7CbwO9jj-72" value="&lt;span style=&quot;font-size: 12px; text-align: left;&quot;&gt;usability&lt;/span&gt;" style="whiteSpace=wrap;html=1;aspect=fixed;labelBackgroundColor=none;fillColor=#cdeb8b;strokeColor=#36393d;fontSize=11;" vertex="1" parent="1">
          <mxGeometry x="283.5" y="100" width="70" height="70" as="geometry" />
        </mxCell>
        <mxCell id="DYhysilcUHir7CbwO9jj-73" value="&lt;span style=&quot;font-size: 12px; text-align: left;&quot;&gt;availability&lt;/span&gt;" style="whiteSpace=wrap;html=1;aspect=fixed;labelBackgroundColor=none;fillColor=#cdeb8b;strokeColor=#36393d;fontSize=11;" vertex="1" parent="1">
          <mxGeometry x="-1288.5" y="140" width="70" height="70" as="geometry" />
        </mxCell>
        <mxCell id="DYhysilcUHir7CbwO9jj-74" value="&lt;span style=&quot;font-size: 12px; text-align: left;&quot;&gt;usability&lt;/span&gt;" style="whiteSpace=wrap;html=1;aspect=fixed;labelBackgroundColor=none;fillColor=#cdeb8b;strokeColor=#36393d;fontSize=11;" vertex="1" parent="1">
          <mxGeometry x="-920" y="215" width="70" height="70" as="geometry" />
        </mxCell>
        <mxCell id="DYhysilcUHir7CbwO9jj-75" value="&lt;span style=&quot;font-size: 12px; text-align: left;&quot;&gt;maintainability&lt;/span&gt;" style="whiteSpace=wrap;html=1;aspect=fixed;labelBackgroundColor=none;fillColor=#cdeb8b;strokeColor=#36393d;fontSize=11;" vertex="1" parent="1">
          <mxGeometry x="-830" y="140" width="70" height="70" as="geometry" />
        </mxCell>
        <mxCell id="DYhysilcUHir7CbwO9jj-76" value="&lt;span style=&quot;font-size: 12px; text-align: left;&quot;&gt;modifiability&lt;/span&gt;" style="whiteSpace=wrap;html=1;aspect=fixed;labelBackgroundColor=none;fillColor=#cdeb8b;strokeColor=#36393d;fontSize=11;" vertex="1" parent="1">
          <mxGeometry x="-920" y="140" width="70" height="70" as="geometry" />
        </mxCell>
        <mxCell id="DYhysilcUHir7CbwO9jj-77" value="&lt;span style=&quot;font-size: 12px; text-align: left;&quot;&gt;еxtensibility&lt;/span&gt;" style="whiteSpace=wrap;html=1;aspect=fixed;labelBackgroundColor=none;fillColor=#cdeb8b;strokeColor=#36393d;fontSize=11;" vertex="1" parent="1">
          <mxGeometry x="-1010" y="140" width="70" height="70" as="geometry" />
        </mxCell>
        <mxCell id="DYhysilcUHir7CbwO9jj-78" value="&lt;span style=&quot;font-size: 12px; text-align: left;&quot;&gt;reliability&lt;/span&gt;" style="whiteSpace=wrap;html=1;aspect=fixed;labelBackgroundColor=none;fillColor=#cdeb8b;strokeColor=#36393d;fontSize=11;" vertex="1" parent="1">
          <mxGeometry x="-1108.5" y="140" width="70" height="70" as="geometry" />
        </mxCell>
        <mxCell id="DYhysilcUHir7CbwO9jj-79" value="&lt;span style=&quot;font-size: 12px; text-align: left;&quot;&gt;continuity&lt;/span&gt;" style="whiteSpace=wrap;html=1;aspect=fixed;labelBackgroundColor=none;fillColor=#cdeb8b;strokeColor=#36393d;fontSize=11;" vertex="1" parent="1">
          <mxGeometry x="-1198.5" y="140" width="70" height="70" as="geometry" />
        </mxCell>
        <mxCell id="DYhysilcUHir7CbwO9jj-81" value="&lt;span style=&quot;font-size: 12px; text-align: left;&quot;&gt;supportability&lt;/span&gt;" style="whiteSpace=wrap;html=1;aspect=fixed;labelBackgroundColor=none;fillColor=#cdeb8b;strokeColor=#36393d;fontSize=11;" vertex="1" parent="1">
          <mxGeometry x="-1288.5" y="215" width="70" height="70" as="geometry" />
        </mxCell>
        <mxCell id="DYhysilcUHir7CbwO9jj-82" value="&lt;span style=&quot;font-size: 12px; text-align: left;&quot;&gt;readability&lt;/span&gt;" style="whiteSpace=wrap;html=1;aspect=fixed;labelBackgroundColor=none;fillColor=#cdeb8b;strokeColor=#36393d;fontSize=11;" vertex="1" parent="1">
          <mxGeometry x="-1198.5" y="215" width="70" height="70" as="geometry" />
        </mxCell>
        <mxCell id="DYhysilcUHir7CbwO9jj-83" value="&lt;span style=&quot;font-size: 12px; text-align: left;&quot;&gt;accessibility&lt;/span&gt;" style="whiteSpace=wrap;html=1;aspect=fixed;labelBackgroundColor=none;fillColor=#cdeb8b;strokeColor=#36393d;fontSize=11;" vertex="1" parent="1">
          <mxGeometry x="-1108.5" y="215" width="70" height="70" as="geometry" />
        </mxCell>
        <mxCell id="DYhysilcUHir7CbwO9jj-84" value="&lt;span style=&quot;font-size: 12px; text-align: left;&quot;&gt;security&lt;/span&gt;" style="whiteSpace=wrap;html=1;aspect=fixed;labelBackgroundColor=none;fillColor=#cdeb8b;strokeColor=#36393d;fontSize=11;" vertex="1" parent="1">
          <mxGeometry x="-1010" y="215" width="70" height="70" as="geometry" />
        </mxCell>
        <mxCell id="DYhysilcUHir7CbwO9jj-80" value="Core subdomain" style="rounded=0;whiteSpace=wrap;html=1;fontStyle=1;" vertex="1" parent="1">
          <mxGeometry x="-1238.5" y="200" width="438.5" height="30" as="geometry" />
        </mxCell>
        <mxCell id="DYhysilcUHir7CbwO9jj-85" value="&lt;b&gt;Consistency&lt;/b&gt;" style="whiteSpace=wrap;html=1;aspect=fixed;labelBackgroundColor=none;fontSize=11;fillColor=#1ba1e2;fontColor=#ffffff;strokeColor=#006EAF;" vertex="1" parent="1">
          <mxGeometry x="-527.25" y="645" width="70" height="70" as="geometry" />
        </mxCell>
        <mxCell id="DYhysilcUHir7CbwO9jj-86" value="&lt;b&gt;Consistency&lt;/b&gt;" style="whiteSpace=wrap;html=1;aspect=fixed;labelBackgroundColor=none;fontSize=11;fillColor=#1ba1e2;fontColor=#ffffff;strokeColor=#006EAF;" vertex="1" parent="1">
          <mxGeometry x="-1021.5" y="650" width="70" height="70" as="geometry" />
        </mxCell>
        <mxCell id="DYhysilcUHir7CbwO9jj-87" value="Хранение данных о фин. операциях" style="rounded=0;whiteSpace=wrap;html=1;fontStyle=1" vertex="1" parent="1">
          <mxGeometry x="-583.75" y="700" width="170" height="30" as="geometry" />
        </mxCell>
        <mxCell id="DYhysilcUHir7CbwO9jj-88" value="Хранение данных о фин. операциях" style="rounded=0;whiteSpace=wrap;html=1;fontStyle=1" vertex="1" parent="1">
          <mxGeometry x="-1080" y="700" width="170" height="30" as="geometry" />
        </mxCell>
        <mxCell id="DYhysilcUHir7CbwO9jj-89" value="&lt;div style=&quot;text-align: left;&quot;&gt;&lt;span style=&quot;background-color: initial; font-size: 12px;&quot;&gt;Scalability&lt;/span&gt;&lt;/div&gt;" style="whiteSpace=wrap;html=1;aspect=fixed;labelBackgroundColor=none;fillColor=#eeeeee;strokeColor=#36393d;fontSize=11;" vertex="1" parent="1">
          <mxGeometry x="-1001.5" y="400" width="70" height="70" as="geometry" />
        </mxCell>
        <mxCell id="DYhysilcUHir7CbwO9jj-90" value="Будет много заказов" style="rounded=0;whiteSpace=wrap;html=1;fontStyle=1" vertex="1" parent="1">
          <mxGeometry x="-1035.75" y="460" width="138.5" height="30" as="geometry" />
        </mxCell>
        <mxCell id="DYhysilcUHir7CbwO9jj-91" value="&lt;div style=&quot;text-align: left;&quot;&gt;&lt;span style=&quot;background-color: initial; font-size: 12px;&quot;&gt;Scalability&lt;/span&gt;&lt;/div&gt;" style="whiteSpace=wrap;html=1;aspect=fixed;labelBackgroundColor=none;fillColor=#eeeeee;strokeColor=#36393d;fontSize=11;" vertex="1" parent="1">
          <mxGeometry x="-1219.5" y="30" width="70" height="70" as="geometry" />
        </mxCell>
        <mxCell id="DYhysilcUHir7CbwO9jj-92" value="Будет много заказов" style="rounded=0;whiteSpace=wrap;html=1;fontStyle=1" vertex="1" parent="1">
          <mxGeometry x="-1253.75" y="90" width="138.5" height="30" as="geometry" />
        </mxCell>
        <mxCell id="DYhysilcUHir7CbwO9jj-95" value="&lt;b style=&quot;font-size: 11px;&quot;&gt;&lt;font style=&quot;font-size: 11px;&quot;&gt;Deployability&lt;/font&gt;&lt;/b&gt;" style="whiteSpace=wrap;html=1;aspect=fixed;labelBackgroundColor=none;fillColor=#647687;strokeColor=#314354;fontSize=11;fontColor=#ffffff;" vertex="1" parent="1">
          <mxGeometry x="580" y="-30" width="70" height="70" as="geometry" />
        </mxCell>
        <mxCell id="DYhysilcUHir7CbwO9jj-96" value="Консёрн топ-менеджеров" style="rounded=0;whiteSpace=wrap;html=1;fontStyle=1" vertex="1" parent="1">
          <mxGeometry x="521.75" y="30" width="186.5" height="30" as="geometry" />
        </mxCell>
        <mxCell id="DYhysilcUHir7CbwO9jj-97" value="Core subdomain" style="rounded=0;whiteSpace=wrap;html=1;fontStyle=1;" vertex="1" parent="1">
          <mxGeometry x="-41" y="80" width="438.5" height="30" as="geometry" />
        </mxCell>
      </root>
    </mxGraphModel>
  </diagram>
</mxfile>
